{
	"asset":{
		"generator":"Khronos glTF Blender I/O v4.1.63",
		"version":"2.0"
	},
	"scene":0,
	"scenes":[
		{
			"name":"Scene",
			"nodes":[
				0
			]
		}
	],
	"nodes":[
		{
			"mesh":0,
			"name":"Plane",
			"scale":[
				6.176600933074951,
				6.176600933074951,
				6.176600933074951
			]
		}
	],
	"materials":[
		{
			"doubleSided":true,
			"name":"Material.002",
			"pbrMetallicRoughness":{
				"baseColorTexture":{
					"index":0
				},
				"metallicFactor":0
			}
		}
	],
	"meshes":[
		{
			"name":"Plane.001",
			"primitives":[
				{
					"attributes":{
						"POSITION":0,
						"NORMAL":1,
						"TEXCOORD_0":2
					},
					"indices":3,
					"material":0
				}
			]
		}
	],
	"textures":[
		{
			"sampler":0,
			"source":0
		}
	],
	"images":[
		{
			"mimeType":"image/jpeg",
			"name":"grass",
			"uri":"grass.jpg"
		}
	],
	"accessors":[
		{
			"bufferView":0,
			"componentType":5126,
			"count":263169,
			"max":[
				6.0940070152282715,
				3.094606876373291,
				6.0940070152282715
			],
			"min":[
				-6.0940070152282715,
				1.8921768318858057e-10,
				-6.0940070152282715
			],
			"type":"VEC3"
		},
		{
			"bufferView":1,
			"componentType":5126,
			"count":263169,
			"type":"VEC3"
		},
		{
			"bufferView":2,
			"componentType":5126,
			"count":263169,
			"type":"VEC2"
		},
		{
			"bufferView":3,
			"componentType":5125,
			"count":1572864,
			"type":"SCALAR"
		}
	],
	"bufferViews":[
		{
			"buffer":0,
			"byteLength":3158028,
			"byteOffset":0,
			"target":34962
		},
		{
			"buffer":0,
			"byteLength":3158028,
			"byteOffset":3158028,
			"target":34962
		},
		{
			"buffer":0,
			"byteLength":2105352,
			"byteOffset":6316056,
			"target":34962
		},
		{
			"buffer":0,
			"byteLength":6291456,
			"byteOffset":8421408,
			"target":34963
		}
	],
	"samplers":[
		{
			"magFilter":9729,
			"minFilter":9987
		}
	],
	"buffers":[
		{
			"byteLength":14712864,
			"uri":"canyon1.bin"
		}
	]
}
